<?xml version="1.0" encoding="UTF-8" standalone="no"?>
<!DOCTYPE svg PUBLIC "-//W3C//DTD SVG 1.1//EN"
 "http://www.w3.org/Graphics/SVG/1.1/DTD/svg11.dtd">
<!-- Generated by graphviz version 2.38.0 (20140413.2041)
 -->
<!-- Title: snakemake_dag Pages: 1 -->
<svg width="610pt" height="769pt"
 viewBox="0.00 0.00 610.00 769.00" xmlns="http://www.w3.org/2000/svg" xmlns:xlink="http://www.w3.org/1999/xlink">
<g id="graph0" class="graph" transform="scale(1 1) rotate(0) translate(4 765)">
<title>snakemake_dag</title>
<polygon fill="white" stroke="none" points="-4,4 -4,-765 606,-765 606,4 -4,4"/>
<!-- 0 -->
<g id="node1" class="node"><title>0</title>
<path fill="none" stroke="#59d856" stroke-width="2" d="M369,-36C369,-36 339,-36 339,-36 333,-36 327,-30 327,-24 327,-24 327,-12 327,-12 327,-6 333,-0 339,-0 339,-0 369,-0 369,-0 375,-0 381,-6 381,-12 381,-12 381,-24 381,-24 381,-30 375,-36 369,-36"/>
<text text-anchor="middle" x="354" y="-15.5" font-family="sans" font-size="10.00">all</text>
</g>
<!-- 1 -->
<g id="node2" class="node"><title>1</title>
<path fill="none" stroke="#c6d856" stroke-width="2" d="M183,-468C183,-468 111,-468 111,-468 105,-468 99,-462 99,-456 99,-456 99,-444 99,-444 99,-438 105,-432 111,-432 111,-432 183,-432 183,-432 189,-432 195,-438 195,-444 195,-444 195,-456 195,-456 195,-462 189,-468 183,-468"/>
<text text-anchor="middle" x="147" y="-447.5" font-family="sans" font-size="10.00">recalibrate_bam</text>
</g>
<!-- 1&#45;&gt;0 -->
<g id="edge1" class="edge"><title>1&#45;&gt;0</title>
<path fill="none" stroke="grey" stroke-width="2" d="M107.993,-431.919C64.4432,-409.896 0,-367.144 0,-307 0,-307 0,-307 0,-161 0,-93.2538 226.149,-43.088 316.937,-25.6784"/>
<polygon fill="grey" stroke="grey" stroke-width="2" points="317.634,-29.1087 326.81,-23.8124 316.334,-22.2305 317.634,-29.1087"/>
</g>
<!-- 12 -->
<g id="node13" class="node"><title>12</title>
<path fill="none" stroke="#d8cb56" stroke-width="2" d="M145.5,-324C145.5,-324 40.5,-324 40.5,-324 34.5,-324 28.5,-318 28.5,-312 28.5,-312 28.5,-300 28.5,-300 28.5,-294 34.5,-288 40.5,-288 40.5,-288 145.5,-288 145.5,-288 151.5,-288 157.5,-294 157.5,-300 157.5,-300 157.5,-312 157.5,-312 157.5,-318 151.5,-324 145.5,-324"/>
<text text-anchor="middle" x="93" y="-303.5" font-family="sans" font-size="10.00">readCounts_in_window</text>
</g>
<!-- 1&#45;&gt;12 -->
<g id="edge22" class="edge"><title>1&#45;&gt;12</title>
<path fill="none" stroke="grey" stroke-width="2" d="M140.486,-431.871C131.202,-407.457 114.077,-362.426 103.129,-333.635"/>
<polygon fill="grey" stroke="grey" stroke-width="2" points="106.363,-332.292 99.5368,-324.189 99.8199,-334.78 106.363,-332.292"/>
</g>
<!-- 18 -->
<g id="node19" class="node"><title>18</title>
<path fill="none" stroke="#56d8a9" stroke-width="2" d="M281,-252C281,-252 141,-252 141,-252 135,-252 129,-246 129,-240 129,-240 129,-228 129,-228 129,-222 135,-216 141,-216 141,-216 281,-216 281,-216 287,-216 293,-222 293,-228 293,-228 293,-240 293,-240 293,-246 287,-252 281,-252"/>
<text text-anchor="middle" x="211" y="-231.5" font-family="sans" font-size="10.00">tumor_VCF_at_germline_SNPs</text>
</g>
<!-- 1&#45;&gt;18 -->
<g id="edge29" class="edge"><title>1&#45;&gt;18</title>
<path fill="none" stroke="grey" stroke-width="2" d="M152.129,-431.849C163.247,-394.675 189.635,-306.439 202.979,-261.82"/>
<polygon fill="grey" stroke="grey" stroke-width="2" points="206.334,-262.816 205.846,-252.232 199.628,-260.81 206.334,-262.816"/>
</g>
<!-- 21 -->
<g id="node22" class="node"><title>21</title>
<path fill="none" stroke="#afd856" stroke-width="2" d="M472.5,-396C472.5,-396 363.5,-396 363.5,-396 357.5,-396 351.5,-390 351.5,-384 351.5,-384 351.5,-372 351.5,-372 351.5,-366 357.5,-360 363.5,-360 363.5,-360 472.5,-360 472.5,-360 478.5,-360 484.5,-366 484.5,-372 484.5,-372 484.5,-384 484.5,-384 484.5,-390 478.5,-396 472.5,-396"/>
<text text-anchor="middle" x="418" y="-381" font-family="sans" font-size="10.00">call_somatic_mutations</text>
<text text-anchor="middle" x="418" y="-370" font-family="sans" font-size="10.00">chr: chr</text>
</g>
<!-- 1&#45;&gt;21 -->
<g id="edge30" class="edge"><title>1&#45;&gt;21</title>
<path fill="none" stroke="grey" stroke-width="2" d="M195.137,-436.566C235.891,-426.039 295.024,-410.765 342.14,-398.595"/>
<polygon fill="grey" stroke="grey" stroke-width="2" points="343.194,-401.938 352,-396.048 341.443,-395.16 343.194,-401.938"/>
</g>
<!-- 2 -->
<g id="node3" class="node"><title>2</title>
<path fill="none" stroke="#c6d856" stroke-width="2" d="M456,-468C456,-468 384,-468 384,-468 378,-468 372,-462 372,-456 372,-456 372,-444 372,-444 372,-438 378,-432 384,-432 384,-432 456,-432 456,-432 462,-432 468,-438 468,-444 468,-444 468,-456 468,-456 468,-462 462,-468 456,-468"/>
<text text-anchor="middle" x="420" y="-447.5" font-family="sans" font-size="10.00">recalibrate_bam</text>
</g>
<!-- 2&#45;&gt;0 -->
<g id="edge2" class="edge"><title>2&#45;&gt;0</title>
<path fill="none" stroke="grey" stroke-width="2" d="M468.295,-434.586C522.213,-415.157 602,-374.93 602,-307 602,-307 602,-307 602,-161 602,-64.9656 460.219,-32.9747 391.06,-23.0824"/>
<polygon fill="grey" stroke="grey" stroke-width="2" points="391.39,-19.5954 381.012,-21.728 390.455,-26.5327 391.39,-19.5954"/>
</g>
<!-- 13 -->
<g id="node14" class="node"><title>13</title>
<path fill="none" stroke="#d8cb56" stroke-width="2" d="M561.5,-252C561.5,-252 456.5,-252 456.5,-252 450.5,-252 444.5,-246 444.5,-240 444.5,-240 444.5,-228 444.5,-228 444.5,-222 450.5,-216 456.5,-216 456.5,-216 561.5,-216 561.5,-216 567.5,-216 573.5,-222 573.5,-228 573.5,-228 573.5,-240 573.5,-240 573.5,-246 567.5,-252 561.5,-252"/>
<text text-anchor="middle" x="509" y="-231.5" font-family="sans" font-size="10.00">readCounts_in_window</text>
</g>
<!-- 2&#45;&gt;13 -->
<g id="edge23" class="edge"><title>2&#45;&gt;13</title>
<path fill="none" stroke="grey" stroke-width="2" d="M455.021,-431.999C469.206,-423.261 484.27,-411.214 493,-396 516.967,-354.23 516.009,-296.198 512.761,-262.419"/>
<polygon fill="grey" stroke="grey" stroke-width="2" points="516.226,-261.913 511.654,-252.356 509.268,-262.678 516.226,-261.913"/>
</g>
<!-- 2&#45;&gt;21 -->
<g id="edge31" class="edge"><title>2&#45;&gt;21</title>
<path fill="none" stroke="grey" stroke-width="2" d="M419.506,-431.697C419.285,-423.983 419.02,-414.712 418.775,-406.112"/>
<polygon fill="grey" stroke="grey" stroke-width="2" points="422.273,-406 418.489,-396.104 415.276,-406.2 422.273,-406"/>
</g>
<!-- 23 -->
<g id="node24" class="node"><title>23</title>
<path fill="none" stroke="#d8ac56" stroke-width="2" d="M321,-396C321,-396 235,-396 235,-396 229,-396 223,-390 223,-384 223,-384 223,-372 223,-372 223,-366 229,-360 235,-360 235,-360 321,-360 321,-360 327,-360 333,-366 333,-372 333,-372 333,-384 333,-384 333,-390 327,-396 321,-396"/>
<text text-anchor="middle" x="278" y="-381" font-family="sans" font-size="10.00">call_germline_snps</text>
<text text-anchor="middle" x="278" y="-370" font-family="sans" font-size="10.00">chr: chr</text>
</g>
<!-- 2&#45;&gt;23 -->
<g id="edge33" class="edge"><title>2&#45;&gt;23</title>
<path fill="none" stroke="grey" stroke-width="2" d="M385.263,-431.876C366.181,-422.469 342.321,-410.708 321.953,-400.667"/>
<polygon fill="grey" stroke="grey" stroke-width="2" points="323.388,-397.472 312.871,-396.19 320.292,-403.751 323.388,-397.472"/>
</g>
<!-- 3 -->
<g id="node4" class="node"><title>3</title>
<path fill="none" stroke="#56a9d8" stroke-width="2" d="M540,-180C540,-180 466,-180 466,-180 460,-180 454,-174 454,-168 454,-168 454,-156 454,-156 454,-150 460,-144 466,-144 466,-144 540,-144 540,-144 546,-144 552,-150 552,-156 552,-156 552,-168 552,-168 552,-174 546,-180 540,-180"/>
<text text-anchor="middle" x="503" y="-159.5" font-family="sans" font-size="10.00">keep_pass_SNPs</text>
</g>
<!-- 3&#45;&gt;0 -->
<g id="edge3" class="edge"><title>3&#45;&gt;0</title>
<path fill="none" stroke="grey" stroke-width="2" d="M488.384,-143.914C472.312,-125.473 445.39,-95.5786 420,-72 408.995,-61.7803 396.259,-51.2739 384.927,-42.3383"/>
<polygon fill="grey" stroke="grey" stroke-width="2" points="387.008,-39.5226 376.969,-36.136 382.705,-45.0439 387.008,-39.5226"/>
</g>
<!-- 5 -->
<g id="node6" class="node"><title>5</title>
<path fill="none" stroke="#8fd856" stroke-width="2" d="M399.5,-108C399.5,-108 308.5,-108 308.5,-108 302.5,-108 296.5,-102 296.5,-96 296.5,-96 296.5,-84 296.5,-84 296.5,-78 302.5,-72 308.5,-72 308.5,-72 399.5,-72 399.5,-72 405.5,-72 411.5,-78 411.5,-84 411.5,-84 411.5,-96 411.5,-96 411.5,-102 405.5,-108 399.5,-108"/>
<text text-anchor="middle" x="354" y="-87.5" font-family="sans" font-size="10.00">clean_up_and_finish</text>
</g>
<!-- 3&#45;&gt;5 -->
<g id="edge14" class="edge"><title>3&#45;&gt;5</title>
<path fill="none" stroke="grey" stroke-width="2" d="M466.55,-143.876C446.362,-134.392 421.079,-122.513 399.592,-112.419"/>
<polygon fill="grey" stroke="grey" stroke-width="2" points="400.87,-109.153 390.331,-108.068 397.894,-115.488 400.87,-109.153"/>
</g>
<!-- 4 -->
<g id="node5" class="node"><title>4</title>
<path fill="none" stroke="#70d856" stroke-width="2" d="M247,-108C247,-108 165,-108 165,-108 159,-108 153,-102 153,-96 153,-96 153,-84 153,-84 153,-78 159,-72 165,-72 165,-72 247,-72 247,-72 253,-72 259,-78 259,-84 259,-84 259,-96 259,-96 259,-102 253,-108 247,-108"/>
<text text-anchor="middle" x="206" y="-87.5" font-family="sans" font-size="10.00">call_somatic_cnvs</text>
</g>
<!-- 4&#45;&gt;0 -->
<g id="edge4" class="edge"><title>4&#45;&gt;0</title>
<path fill="none" stroke="grey" stroke-width="2" d="M242.205,-71.8761C265.22,-60.9904 294.903,-46.9511 317.899,-36.0749"/>
<polygon fill="grey" stroke="grey" stroke-width="2" points="319.444,-39.2157 326.988,-31.7761 316.451,-32.8878 319.444,-39.2157"/>
</g>
<!-- 5&#45;&gt;0 -->
<g id="edge5" class="edge"><title>5&#45;&gt;0</title>
<path fill="none" stroke="grey" stroke-width="2" d="M354,-71.6966C354,-63.9827 354,-54.7125 354,-46.1124"/>
<polygon fill="grey" stroke="grey" stroke-width="2" points="357.5,-46.1043 354,-36.1043 350.5,-46.1044 357.5,-46.1043"/>
</g>
<!-- 6 -->
<g id="node7" class="node"><title>6</title>
<path fill="none" stroke="#d87556" stroke-width="2" d="M252,-612C252,-612 166,-612 166,-612 160,-612 154,-606 154,-600 154,-600 154,-588 154,-588 154,-582 160,-576 166,-576 166,-576 252,-576 252,-576 258,-576 264,-582 264,-588 264,-588 264,-600 264,-600 264,-606 258,-612 252,-612"/>
<text text-anchor="middle" x="209" y="-591.5" font-family="sans" font-size="10.00">remove_duplicates</text>
</g>
<!-- 6&#45;&gt;1 -->
<g id="edge6" class="edge"><title>6&#45;&gt;1</title>
<path fill="none" stroke="grey" stroke-width="2" d="M189.658,-575.659C180.164,-566.073 169.416,-553.408 163,-540 153.709,-520.586 149.781,-496.441 148.136,-478.201"/>
<polygon fill="grey" stroke="grey" stroke-width="2" points="151.626,-477.942 147.408,-468.223 144.645,-478.452 151.626,-477.942"/>
</g>
<!-- 7 -->
<g id="node8" class="node"><title>7</title>
<path fill="none" stroke="#56d8c9" stroke-width="2" d="M248,-540C248,-540 184,-540 184,-540 178,-540 172,-534 172,-528 172,-528 172,-516 172,-516 172,-510 178,-504 184,-504 184,-504 248,-504 248,-504 254,-504 260,-510 260,-516 260,-516 260,-528 260,-528 260,-534 254,-540 248,-540"/>
<text text-anchor="middle" x="216" y="-519.5" font-family="sans" font-size="10.00">base_calibrate</text>
</g>
<!-- 6&#45;&gt;7 -->
<g id="edge17" class="edge"><title>6&#45;&gt;7</title>
<path fill="none" stroke="grey" stroke-width="2" d="M210.73,-575.697C211.502,-567.983 212.429,-558.712 213.289,-550.112"/>
<polygon fill="grey" stroke="grey" stroke-width="2" points="216.777,-550.403 214.29,-540.104 209.812,-549.706 216.777,-550.403"/>
</g>
<!-- 7&#45;&gt;1 -->
<g id="edge7" class="edge"><title>7&#45;&gt;1</title>
<path fill="none" stroke="grey" stroke-width="2" d="M198.944,-503.697C190.505,-495.135 180.175,-484.656 170.957,-475.304"/>
<polygon fill="grey" stroke="grey" stroke-width="2" points="173.373,-472.769 163.86,-468.104 168.387,-477.683 173.373,-472.769"/>
</g>
<!-- 8 -->
<g id="node9" class="node"><title>8</title>
<path fill="none" stroke="#d87556" stroke-width="2" d="M406,-612C406,-612 320,-612 320,-612 314,-612 308,-606 308,-600 308,-600 308,-588 308,-588 308,-582 314,-576 320,-576 320,-576 406,-576 406,-576 412,-576 418,-582 418,-588 418,-588 418,-600 418,-600 418,-606 412,-612 406,-612"/>
<text text-anchor="middle" x="363" y="-591.5" font-family="sans" font-size="10.00">remove_duplicates</text>
</g>
<!-- 8&#45;&gt;2 -->
<g id="edge8" class="edge"><title>8&#45;&gt;2</title>
<path fill="none" stroke="grey" stroke-width="2" d="M360.499,-575.773C358.576,-557.212 357.744,-527.216 368,-504 372.835,-493.056 380.999,-483.081 389.443,-474.811"/>
<polygon fill="grey" stroke="grey" stroke-width="2" points="391.86,-477.343 396.858,-468.001 387.125,-472.187 391.86,-477.343"/>
</g>
<!-- 9 -->
<g id="node10" class="node"><title>9</title>
<path fill="none" stroke="#56d8c9" stroke-width="2" d="M453,-540C453,-540 389,-540 389,-540 383,-540 377,-534 377,-528 377,-528 377,-516 377,-516 377,-510 383,-504 389,-504 389,-504 453,-504 453,-504 459,-504 465,-510 465,-516 465,-516 465,-528 465,-528 465,-534 459,-540 453,-540"/>
<text text-anchor="middle" x="421" y="-519.5" font-family="sans" font-size="10.00">base_calibrate</text>
</g>
<!-- 8&#45;&gt;9 -->
<g id="edge19" class="edge"><title>8&#45;&gt;9</title>
<path fill="none" stroke="grey" stroke-width="2" d="M377.337,-575.697C384.291,-567.305 392.77,-557.07 400.401,-547.861"/>
<polygon fill="grey" stroke="grey" stroke-width="2" points="403.143,-550.038 406.828,-540.104 397.753,-545.571 403.143,-550.038"/>
</g>
<!-- 9&#45;&gt;2 -->
<g id="edge9" class="edge"><title>9&#45;&gt;2</title>
<path fill="none" stroke="grey" stroke-width="2" d="M420.753,-503.697C420.643,-495.983 420.51,-486.712 420.387,-478.112"/>
<polygon fill="grey" stroke="grey" stroke-width="2" points="423.887,-478.053 420.244,-468.104 416.888,-478.153 423.887,-478.053"/>
</g>
<!-- 10 -->
<g id="node11" class="node"><title>10</title>
<path fill="none" stroke="#56c9d8" stroke-width="2" d="M414.5,-252C414.5,-252 327.5,-252 327.5,-252 321.5,-252 315.5,-246 315.5,-240 315.5,-240 315.5,-228 315.5,-228 315.5,-222 321.5,-216 327.5,-216 327.5,-216 414.5,-216 414.5,-216 420.5,-216 426.5,-222 426.5,-228 426.5,-228 426.5,-240 426.5,-240 426.5,-246 420.5,-252 414.5,-252"/>
<text text-anchor="middle" x="371" y="-231.5" font-family="sans" font-size="10.00">filter_somatic_calls</text>
</g>
<!-- 10&#45;&gt;3 -->
<g id="edge10" class="edge"><title>10&#45;&gt;3</title>
<path fill="none" stroke="grey" stroke-width="2" d="M403.291,-215.876C420.869,-206.554 442.809,-194.919 461.629,-184.939"/>
<polygon fill="grey" stroke="grey" stroke-width="2" points="463.39,-187.967 470.585,-180.19 460.111,-181.783 463.39,-187.967"/>
</g>
<!-- 11 -->
<g id="node12" class="node"><title>11</title>
<path fill="none" stroke="#d88d56" stroke-width="2" d="M238.5,-180C238.5,-180 133.5,-180 133.5,-180 127.5,-180 121.5,-174 121.5,-168 121.5,-168 121.5,-156 121.5,-156 121.5,-150 127.5,-144 133.5,-144 133.5,-144 238.5,-144 238.5,-144 244.5,-144 250.5,-150 250.5,-156 250.5,-156 250.5,-168 250.5,-168 250.5,-174 244.5,-180 238.5,-180"/>
<text text-anchor="middle" x="186" y="-159.5" font-family="sans" font-size="10.00">concat_tumor_vcf_files</text>
</g>
<!-- 11&#45;&gt;4 -->
<g id="edge11" class="edge"><title>11&#45;&gt;4</title>
<path fill="none" stroke="grey" stroke-width="2" d="M190.944,-143.697C193.172,-135.898 195.855,-126.509 198.335,-117.829"/>
<polygon fill="grey" stroke="grey" stroke-width="2" points="201.731,-118.681 201.113,-108.104 195,-116.758 201.731,-118.681"/>
</g>
<!-- 12&#45;&gt;4 -->
<g id="edge12" class="edge"><title>12&#45;&gt;4</title>
<path fill="none" stroke="grey" stroke-width="2" d="M90.2904,-287.787C86.2938,-256.344 82.2061,-188.746 112,-144 120.688,-130.952 133.738,-120.772 147.371,-112.978"/>
<polygon fill="grey" stroke="grey" stroke-width="2" points="149.185,-115.978 156.375,-108.195 145.901,-109.796 149.185,-115.978"/>
</g>
<!-- 13&#45;&gt;4 -->
<g id="edge13" class="edge"><title>13&#45;&gt;4</title>
<path fill="none" stroke="grey" stroke-width="2" d="M487.718,-215.856C475.151,-205.613 459.009,-192.251 445,-180 427.243,-164.472 426.676,-155.355 406,-144 382.509,-131.099 318.451,-115.23 269.1,-104.237"/>
<polygon fill="grey" stroke="grey" stroke-width="2" points="269.647,-100.773 259.128,-102.037 268.139,-107.609 269.647,-100.773"/>
</g>
<!-- 14 -->
<g id="node15" class="node"><title>14</title>
<path fill="none" stroke="#d88d56" stroke-width="2" d="M385.5,-180C385.5,-180 280.5,-180 280.5,-180 274.5,-180 268.5,-174 268.5,-168 268.5,-168 268.5,-156 268.5,-156 268.5,-150 274.5,-144 280.5,-144 280.5,-144 385.5,-144 385.5,-144 391.5,-144 397.5,-150 397.5,-156 397.5,-156 397.5,-168 397.5,-168 397.5,-174 391.5,-180 385.5,-180"/>
<text text-anchor="middle" x="333" y="-165" font-family="sans" font-size="10.00">concat_tumor_vcf_files</text>
<text text-anchor="middle" x="333" y="-154" font-family="sans" font-size="10.00">id: VCFs/SRR062634</text>
</g>
<!-- 14&#45;&gt;5 -->
<g id="edge15" class="edge"><title>14&#45;&gt;5</title>
<path fill="none" stroke="grey" stroke-width="2" d="M338.191,-143.697C340.531,-135.898 343.347,-126.509 345.951,-117.829"/>
<polygon fill="grey" stroke="grey" stroke-width="2" points="349.348,-118.688 348.869,-108.104 342.643,-116.677 349.348,-118.688"/>
</g>
<!-- 15 -->
<g id="node16" class="node"><title>15</title>
<path fill="none" stroke="#d85656" stroke-width="2" d="M231,-684C231,-684 187,-684 187,-684 181,-684 175,-678 175,-672 175,-672 175,-660 175,-660 175,-654 181,-648 187,-648 187,-648 231,-648 231,-648 237,-648 243,-654 243,-660 243,-660 243,-672 243,-672 243,-678 237,-684 231,-684"/>
<text text-anchor="middle" x="209" y="-663.5" font-family="sans" font-size="10.00">sort_bams</text>
</g>
<!-- 15&#45;&gt;6 -->
<g id="edge16" class="edge"><title>15&#45;&gt;6</title>
<path fill="none" stroke="grey" stroke-width="2" d="M209,-647.697C209,-639.983 209,-630.712 209,-622.112"/>
<polygon fill="grey" stroke="grey" stroke-width="2" points="212.5,-622.104 209,-612.104 205.5,-622.104 212.5,-622.104"/>
</g>
<!-- 16 -->
<g id="node17" class="node"><title>16</title>
<path fill="none" stroke="#d85656" stroke-width="2" d="M385,-684C385,-684 341,-684 341,-684 335,-684 329,-678 329,-672 329,-672 329,-660 329,-660 329,-654 335,-648 341,-648 341,-648 385,-648 385,-648 391,-648 397,-654 397,-660 397,-660 397,-672 397,-672 397,-678 391,-684 385,-684"/>
<text text-anchor="middle" x="363" y="-663.5" font-family="sans" font-size="10.00">sort_bams</text>
</g>
<!-- 16&#45;&gt;8 -->
<g id="edge18" class="edge"><title>16&#45;&gt;8</title>
<path fill="none" stroke="grey" stroke-width="2" d="M363,-647.697C363,-639.983 363,-630.712 363,-622.112"/>
<polygon fill="grey" stroke="grey" stroke-width="2" points="366.5,-622.104 363,-612.104 359.5,-622.104 366.5,-622.104"/>
</g>
<!-- 17 -->
<g id="node18" class="node"><title>17</title>
<path fill="none" stroke="#56d892" stroke-width="2" d="M467.5,-324C467.5,-324 372.5,-324 372.5,-324 366.5,-324 360.5,-318 360.5,-312 360.5,-312 360.5,-300 360.5,-300 360.5,-294 366.5,-288 372.5,-288 372.5,-288 467.5,-288 467.5,-288 473.5,-288 479.5,-294 479.5,-300 479.5,-300 479.5,-312 479.5,-312 479.5,-318 473.5,-324 467.5,-324"/>
<text text-anchor="middle" x="420" y="-303.5" font-family="sans" font-size="10.00">concat_somatic_vcfs</text>
</g>
<!-- 17&#45;&gt;10 -->
<g id="edge20" class="edge"><title>17&#45;&gt;10</title>
<path fill="none" stroke="grey" stroke-width="2" d="M407.888,-287.697C402.132,-279.474 395.138,-269.483 388.794,-260.421"/>
<polygon fill="grey" stroke="grey" stroke-width="2" points="391.575,-258.29 382.973,-252.104 385.84,-262.304 391.575,-258.29"/>
</g>
<!-- 18&#45;&gt;11 -->
<g id="edge21" class="edge"><title>18&#45;&gt;11</title>
<path fill="none" stroke="grey" stroke-width="2" d="M204.82,-215.697C202.005,-207.813 198.609,-198.304 195.481,-189.546"/>
<polygon fill="grey" stroke="grey" stroke-width="2" points="198.768,-188.345 192.109,-180.104 192.176,-190.699 198.768,-188.345"/>
</g>
<!-- 18&#45;&gt;14 -->
<g id="edge24" class="edge"><title>18&#45;&gt;14</title>
<path fill="none" stroke="grey" stroke-width="2" d="M240.845,-215.876C256.944,-206.639 277.001,-195.131 294.288,-185.212"/>
<polygon fill="grey" stroke="grey" stroke-width="2" points="296.109,-188.202 303.041,-180.19 292.625,-182.131 296.109,-188.202"/>
</g>
<!-- 19 -->
<g id="node20" class="node"><title>19</title>
<path fill="none" stroke="#5673d8" stroke-width="2" d="M240.5,-761C240.5,-761 177.5,-761 177.5,-761 171.5,-761 165.5,-755 165.5,-749 165.5,-749 165.5,-732 165.5,-732 165.5,-726 171.5,-720 177.5,-720 177.5,-720 240.5,-720 240.5,-720 246.5,-720 252.5,-726 252.5,-732 252.5,-732 252.5,-749 252.5,-749 252.5,-755 246.5,-761 240.5,-761"/>
<text text-anchor="middle" x="209" y="-749" font-family="sans" font-size="10.00">bwa</text>
<text text-anchor="middle" x="209" y="-738" font-family="sans" font-size="10.00">id: SRR062634</text>
<text text-anchor="middle" x="209" y="-727" font-family="sans" font-size="10.00">type: tumor</text>
</g>
<!-- 19&#45;&gt;15 -->
<g id="edge25" class="edge"><title>19&#45;&gt;15</title>
<path fill="none" stroke="grey" stroke-width="2" d="M209,-719.689C209,-711.907 209,-702.842 209,-694.447"/>
<polygon fill="grey" stroke="grey" stroke-width="2" points="212.5,-694.319 209,-684.319 205.5,-694.32 212.5,-694.319"/>
</g>
<!-- 20 -->
<g id="node21" class="node"><title>20</title>
<path fill="none" stroke="#5673d8" stroke-width="2" d="M394.5,-761C394.5,-761 331.5,-761 331.5,-761 325.5,-761 319.5,-755 319.5,-749 319.5,-749 319.5,-732 319.5,-732 319.5,-726 325.5,-720 331.5,-720 331.5,-720 394.5,-720 394.5,-720 400.5,-720 406.5,-726 406.5,-732 406.5,-732 406.5,-749 406.5,-749 406.5,-755 400.5,-761 394.5,-761"/>
<text text-anchor="middle" x="363" y="-749" font-family="sans" font-size="10.00">bwa</text>
<text text-anchor="middle" x="363" y="-738" font-family="sans" font-size="10.00">id: SRR062634</text>
<text text-anchor="middle" x="363" y="-727" font-family="sans" font-size="10.00">type: normal</text>
</g>
<!-- 20&#45;&gt;16 -->
<g id="edge26" class="edge"><title>20&#45;&gt;16</title>
<path fill="none" stroke="grey" stroke-width="2" d="M363,-719.689C363,-711.907 363,-702.842 363,-694.447"/>
<polygon fill="grey" stroke="grey" stroke-width="2" points="366.5,-694.319 363,-684.319 359.5,-694.32 366.5,-694.319"/>
</g>
<!-- 21&#45;&gt;17 -->
<g id="edge27" class="edge"><title>21&#45;&gt;17</title>
<path fill="none" stroke="grey" stroke-width="2" d="M418.494,-359.697C418.715,-351.983 418.98,-342.712 419.225,-334.112"/>
<polygon fill="grey" stroke="grey" stroke-width="2" points="422.724,-334.2 419.511,-324.104 415.727,-334 422.724,-334.2"/>
</g>
<!-- 22 -->
<g id="node23" class="node"><title>22</title>
<path fill="none" stroke="#56d873" stroke-width="2" d="M330,-324C330,-324 226,-324 226,-324 220,-324 214,-318 214,-312 214,-312 214,-300 214,-300 214,-294 220,-288 226,-288 226,-288 330,-288 330,-288 336,-288 342,-294 342,-300 342,-300 342,-312 342,-312 342,-318 336,-324 330,-324"/>
<text text-anchor="middle" x="278" y="-303.5" font-family="sans" font-size="10.00">get_germline_SNP_pos</text>
</g>
<!-- 22&#45;&gt;18 -->
<g id="edge28" class="edge"><title>22&#45;&gt;18</title>
<path fill="none" stroke="grey" stroke-width="2" d="M261.438,-287.697C253.325,-279.22 243.412,-268.864 234.529,-259.583"/>
<polygon fill="grey" stroke="grey" stroke-width="2" points="236.814,-256.908 227.371,-252.104 231.757,-261.749 236.814,-256.908"/>
</g>
<!-- 23&#45;&gt;22 -->
<g id="edge32" class="edge"><title>23&#45;&gt;22</title>
<path fill="none" stroke="grey" stroke-width="2" d="M278,-359.697C278,-351.983 278,-342.712 278,-334.112"/>
<polygon fill="grey" stroke="grey" stroke-width="2" points="281.5,-334.104 278,-324.104 274.5,-334.104 281.5,-334.104"/>
</g>
</g>
</svg>
